<svg xmlns="http://www.w3.org/2000/svg" width="960" height="720" viewBox="0 0 960 720" fill="none">
  <rect width="960" height="720" fill="#efe7d7"/>
  <rect x="64" y="64" width="832" height="592" rx="6" fill="#f7f0e3" stroke="#b98a45" stroke-width="2"/>
  <path d="M118 604h724M148 566h664M184 526h592" stroke="#a7763a" stroke-width="6" stroke-linecap="round"/>
  <path d="M210 232c42-84 128-140 270-140s228 56 270 140" stroke="#9d733e" stroke-width="7" stroke-linecap="round"/>
  <path d="M198 232h564" stroke="#9d733e" stroke-width="9" stroke-linecap="round"/>
  <path d="M176 270h608" stroke="#cba15b" stroke-width="18" stroke-linecap="round"/>
  <path d="M196 288h568" stroke="#7f623d" stroke-width="4" stroke-linecap="round"/>
  <g opacity=".92">
    <path d="M246 296v224M318 296v224M642 296v224M714 296v224" stroke="#a98555" stroke-width="18" stroke-linecap="round"/>
    <path d="M246 306v202M318 306v202M642 306v202M714 306v202" stroke="#eadfca" stroke-width="5" stroke-linecap="round"/>
    <path d="M220 292h124M616 292h124M220 522h124M616 522h124" stroke="#89673c" stroke-width="12" stroke-linecap="round"/>
  </g>
  <g opacity=".9">
    <circle cx="480" cy="370" r="105" fill="#eadbc0" stroke="#9d733e" stroke-width="5"/>
    <circle cx="480" cy="370" r="82" stroke="#cba15b" stroke-width="3"/>
    <path d="M480 284v172" stroke="#775636" stroke-width="10" stroke-linecap="round"/>
    <path d="M414 338c22-20 44-30 66-30s44 10 66 30" stroke="#775636" stroke-width="10" stroke-linecap="round"/>
    <path d="M402 390c34 26 60 39 78 39s44-13 78-39" stroke="#775636" stroke-width="10" stroke-linecap="round"/>
    <path d="M456 356h48M444 386h72" stroke="#cba15b" stroke-width="8" stroke-linecap="round"/>
    <path d="M390 472c36-18 66-27 90-27s54 9 90 27" stroke="#9d733e" stroke-width="8" stroke-linecap="round"/>
  </g>
  <g opacity=".75">
    <path d="M126 192c32 8 54 8 84 0 30-9 55-9 88 0" stroke="#cba15b" stroke-width="5" stroke-linecap="round"/>
    <path d="M662 192c32 8 54 8 84 0 30-9 55-9 88 0" stroke="#cba15b" stroke-width="5" stroke-linecap="round"/>
    <path d="M142 166c28 7 48 7 74 0M684 166c28 7 48 7 74 0" stroke="#8c663a" stroke-width="4" stroke-linecap="round"/>
  </g>
  <path d="M0 0h960v720H0z" fill="url(#vignette)"/>
  <defs>
    <radialGradient id="vignette" cx="0" cy="0" r="1" gradientUnits="userSpaceOnUse" gradientTransform="translate(480 340) rotate(90) scale(458 611)">
      <stop offset=".48" stop-color="#fff" stop-opacity="0"/>
      <stop offset=".82" stop-color="#312317" stop-opacity=".18"/>
      <stop offset="1" stop-color="#312317" stop-opacity=".34"/>
    </radialGradient>
  </defs>
</svg>
